<svg id="Layer_1" data-name="Layer 1" xmlns="http://www.w3.org/2000/svg" viewBox="0 0 692.18 790.016">
  <g>
    <g>
      <rect x="488.611" y="102.012" width="149.507" height="105.915" rx="4.343" fill="#292a2e" opacity="0.05"></rect>
      <circle cx="551.573" cy="123.328" r="10.818" fill="#292a2e" opacity="0.05"></circle>
      <path d="M555.651,172.837l31.361-34.985a11.144,11.144,0,0,1,15.64-.946l35.466,31.052V203.6a4.327,4.327,0,0,1-4.327,4.327H595.247" fill="#292a2e" opacity="0.05"></path>
      <path d="M595.247,207.927l-68-60.263a11.143,11.143,0,0,0-14.613-.147l-24.021,20.441v36.056a3.913,3.913,0,0,0,3.914,3.913Z" fill="#292a2e" opacity="0.1"></path>
    </g>
    <g>
      <rect x="139.994" y="108.131" width="134.473" height="95.265" rx="3.906" fill="#292a2e" opacity="0.05"></rect>
      <circle cx="196.624" cy="127.303" r="9.73" fill="#292a2e" opacity="0.05"></circle>
      <path d="M200.293,171.834,228.5,140.367a10.023,10.023,0,0,1,14.067-.851l31.9,27.93V199.5a3.892,3.892,0,0,1-3.892,3.892H235.907" fill="#292a2e" opacity="0.05"></path>
      <path d="M235.907,203.4l-61.164-54.2a10.023,10.023,0,0,0-13.144-.132l-21.6,18.386v32.43a3.52,3.52,0,0,0,3.52,3.52Z" fill="#292a2e" opacity="0.1"></path>
    </g>
    <g>
      <path d="M104.891,111.494A29.158,29.158,0,0,1,99.109,53.8a44.949,44.949,0,0,1,5.72-30.912,44.608,44.608,0,0,1,77.828,1.87,22.4,22.4,0,0,1,28.757,2.861,22.824,22.824,0,0,1,6.334,13.527,35.268,35.268,0,0,1,23.226,59.44,34.679,34.679,0,0,1-24.49,10.89Z" fill="#292a2e"></path>
      <g>
        <path d="M96.571,111.494A29.158,29.158,0,0,1,90.789,53.8a44.949,44.949,0,0,1,5.719-30.912,44.609,44.609,0,0,1,77.829,1.87,22.4,22.4,0,0,1,28.757,2.861,22.83,22.83,0,0,1,6.334,13.527,35.268,35.268,0,0,1,23.226,59.44,34.682,34.682,0,0,1-24.49,10.89Z" fill="#fff"></path>
        <path d="M96.571,112.494h0a30.07,30.07,0,0,1-29.932-30.14A29.728,29.728,0,0,1,89.648,53.028a46.2,46.2,0,0,1,6-30.648,45.6,45.6,0,0,1,79.044.952,23.407,23.407,0,0,1,29.118,3.595,23.832,23.832,0,0,1,6.508,13.284,36.273,36.273,0,0,1,23.062,61.065,35.683,35.683,0,0,1-25.194,11.2ZM134.909,2A44.025,44.025,0,0,0,91.774,53.632l.167.96-.955.192a27.746,27.746,0,0,0-22.347,27.57,28.068,28.068,0,0,0,27.932,28.14l111.593-.014A33.681,33.681,0,0,0,231.929,99.9a34.269,34.269,0,0,0-22.562-57.754l-.846-.05-.088-.843a21.844,21.844,0,0,0-6.055-12.933,21.4,21.4,0,0,0-27.473-2.736l-.924.637-.527-.99A43.646,43.646,0,0,0,134.909,2Z" fill="#292a2e"></path>
      </g>
      <path d="M155.564,95.3a1,1,0,0,1-1-1V36.217a1,1,0,0,1,2,0V94.3A1,1,0,0,1,155.564,95.3Z" fill="#292a2e"></path>
      <path d="M177.5,59.152a.993.993,0,0,1-.707-.293L155.564,37.631,134.336,58.859a1,1,0,0,1-1.414-1.414L154.856,35.51a1.031,1.031,0,0,1,1.415,0l21.935,21.935a1,1,0,0,1-.707,1.707Z" fill="#292a2e"></path>
    </g>
    <g>
      <rect x="460.359" y="355.762" width="231.821" height="164.23" rx="6.734" fill="#292a2e" opacity="0.05"></rect>
      <circle cx="557.985" cy="388.815" r="16.774" fill="#292a2e" opacity="0.05"></circle>
      <path d="M564.309,465.582l48.628-54.247a17.279,17.279,0,0,1,24.25-1.467l54.993,48.149v55.266a6.71,6.71,0,0,1-6.71,6.709H625.705" fill="#292a2e" opacity="0.05"></path>
      <path d="M625.705,519.992,520.263,426.549a17.28,17.28,0,0,0-22.659-.228l-37.245,31.7v55.907a6.067,6.067,0,0,0,6.067,6.068Z" fill="#292a2e" opacity="0.1"></path>
    </g>
    <g>
      <rect x="29.826" y="498.455" width="235.438" height="166.792" rx="6.839" fill="#292a2e" opacity="0.05"></rect>
      <circle cx="128.975" cy="532.023" r="17.036" fill="#292a2e" opacity="0.05"></circle>
      <path d="M135.4,609.989l49.387-55.1a17.55,17.55,0,0,1,24.628-1.489l55.851,48.9v56.128a6.814,6.814,0,0,1-6.814,6.814h-60.7" fill="#292a2e" opacity="0.05"></path>
      <path d="M197.752,665.247l-107.087-94.9a17.549,17.549,0,0,0-23.013-.231L29.826,602.3v56.78a6.162,6.162,0,0,0,6.162,6.162Z" fill="#292a2e" opacity="0.1"></path>
    </g>
    <g>
      <path d="M601.06,670.4a.908.908,0,0,1-.642-.266c-1.28-1.28-3.365-24.756-8.983-94.653-2.3-28.6-4.47-55.615-6.055-72.032-.113-1.172-.567-1.309-.717-1.354-2.169-.654-8.765,4.548-12.448,9.1a.909.909,0,0,1-1.413-1.143c2.436-3.011,10.373-10.906,14.384-9.7.808.243,1.812.946,2,2.919,1.585,16.431,3.757,43.453,6.057,72.061,3.414,42.475,7.281,90.595,8.552,93.626a.909.909,0,0,1-.738,1.438Z" fill="#494949"></path>
      <ellipse cx="566.916" cy="513.458" rx="34.971" ry="25.79" transform="translate(-196.57 467.397) rotate(-38.715)" fill="#FFC107"></ellipse>
      <ellipse cx="566.916" cy="513.458" rx="34.971" ry="25.79" transform="translate(-196.57 467.397) rotate(-38.715)" fill="#fff" opacity="0.2"></ellipse>
      <path d="M543.854,538.154a.455.455,0,0,1-.349-.745l42.949-51.792a.454.454,0,0,1,.7.58L544.2,537.99A.452.452,0,0,1,543.854,538.154Z" fill="#fff"></path>
      <path d="M610.428,659.3a.921.921,0,0,1-.3-.051.908.908,0,0,1-.559-1.156L625.7,611.7a8.623,8.623,0,0,1,14.1-3.4l8.529,8.147a.908.908,0,1,1-1.255,1.313l-8.529-8.147a6.807,6.807,0,0,0-11.132,2.687l-16.133,46.4A.908.908,0,0,1,610.428,659.3Z" fill="#494949"></path>
      <ellipse cx="650.459" cy="614.703" rx="25.79" ry="34.971" transform="translate(-241.073 536.424) rotate(-38.363)" fill="#FFC107"></ellipse>
      <path d="M593.731,667.444a.908.908,0,0,1-.882-.7l-27.073-113.2a4.315,4.315,0,0,0-7.459-1.82l-8.345,9.644a.908.908,0,0,1-1.374-1.188l8.345-9.644a6.131,6.131,0,0,1,10.6,2.586l27.073,113.2a.908.908,0,0,1-.884,1.119Z" fill="#494949"></path>
      <ellipse cx="558.329" cy="582.124" rx="34.971" ry="25.79" transform="translate(-110.417 1033.099) rotate(-80.189)" fill="#FFC107"></ellipse>
      <path d="M601.062,670.4a.832.832,0,0,1-.112-.007.909.909,0,0,1-.791-1.012l17.288-140.365A8,8,0,0,1,631.38,524.7l19.76,22.38a.908.908,0,1,1-1.362,1.2l-19.76-22.38a6.181,6.181,0,0,0-10.768,3.335L601.962,669.605A.908.908,0,0,1,601.062,670.4Z" fill="#494949"></path>
      <ellipse cx="640.805" cy="542.593" rx="25.79" ry="34.971" transform="translate(-144.161 840.698) rotate(-61.051)" fill="#FFC107"></ellipse>
      <ellipse cx="650.459" cy="614.703" rx="25.79" ry="34.971" transform="translate(-241.073 536.424) rotate(-38.363)" fill="#fff" opacity="0.2"></ellipse>
      <ellipse cx="558.329" cy="582.124" rx="34.971" ry="25.79" transform="translate(-110.417 1033.099) rotate(-80.189)" fill="#fff" opacity="0.5"></ellipse>
      <ellipse cx="640.805" cy="542.593" rx="25.79" ry="34.971" transform="translate(-144.161 840.698) rotate(-61.051)" fill="#fff" opacity="0.5"></ellipse>
      <polygon points="623.173 789.502 578.948 789.502 571.62 648.005 630.501 648.005 623.173 789.502" fill="#292a2e"></polygon>
      <polygon points="623.173 789.502 578.948 789.502 571.62 648.005 630.501 648.005 623.173 789.502" fill="#fff" opacity="0.3"></polygon>
      <path d="M672.164,642.578a.45.45,0,0,1-.356-.173L628.4,587.564a.454.454,0,1,1,.712-.564l43.41,54.841a.454.454,0,0,1-.356.737Z" fill="#fff"></path>
      <path d="M668.519,563.914a.453.453,0,0,1-.267-.087L612.7,523.265a.454.454,0,1,1,.536-.733l55.55,40.561a.454.454,0,0,1-.269.821Z" fill="#fff"></path>
      <path d="M550.117,616a.477.477,0,0,1-.118-.015.454.454,0,0,1-.321-.556l17.683-66.254a.454.454,0,1,1,.877.234l-17.683,66.254A.454.454,0,0,1,550.117,616Z" fill="#fff"></path>
    </g>
    <g>
      <g>
        <rect x="209.407" y="47.237" width="330.12" height="673.244" rx="38.05" fill="#292a2e"></rect>
        <rect x="221.449" y="59.118" width="306.037" height="648.593" rx="26.127" fill="#fff"></rect>
        <path d="M311.789,54.206H437.146a0,0,0,0,1,0,0V67.177A14.027,14.027,0,0,1,423.119,81.2h-97.3a14.027,14.027,0,0,1-14.027-14.027V54.206A0,0,0,0,1,311.789,54.206Z" fill="#292a2e"></path>
      </g>
      <g>
        <rect x="303.159" y="181.537" width="142.617" height="142.617" rx="22.614" fill="#fff"></rect>
        <path d="M423.161,325.154H325.773a23.64,23.64,0,0,1-23.614-23.614V204.151a23.641,23.641,0,0,1,23.614-23.614h97.388a23.641,23.641,0,0,1,23.614,23.614V301.54A23.64,23.64,0,0,1,423.161,325.154ZM325.773,182.537a21.639,21.639,0,0,0-21.614,21.614V301.54a21.639,21.639,0,0,0,21.614,21.614h97.388a21.638,21.638,0,0,0,21.614-21.614V204.151a21.638,21.638,0,0,0-21.614-21.614Z" fill="#292a2e"></path>
      </g>
      <path d="M416.687,440.807v18.64H278.957a9.32,9.32,0,0,1,0-18.64Z" fill="#1FB2A5" opacity="0.6"></path>
      <path d="M469.975,460.449H278.96a10.322,10.322,0,1,1,0-20.643H469.975a10.322,10.322,0,0,1,0,20.643ZM278.96,441.806a8.322,8.322,0,1,0,0,16.643H469.975a8.322,8.322,0,0,0,0-16.643Z" fill="#292a2e"></path>
      <g>
        <rect x="293.444" y="523.014" width="162.047" height="66.756" rx="14.249" fill="#1FB2A5" opacity="0.8"></rect>
        <path d="M455.487,575.524v6.556a14.246,14.246,0,0,1-14.246,14.246H307.692a14.246,14.246,0,0,1-14.246-14.246v-6.556a14.246,14.246,0,0,0,14.246,14.246H441.241A14.247,14.247,0,0,0,455.487,575.524Z" fill="#1FB2A5"></path>
        <path d="M365.564,576.113a2.337,2.337,0,0,1-1.523-.563l-15.286-13.1a2.341,2.341,0,1,1,3.047-3.556l13.564,11.625,31.562-34.533a2.341,2.341,0,1,1,3.456,3.159l-33.091,36.207A2.333,2.333,0,0,1,365.564,576.113Z" fill="#fff"></path>
      </g>
      <g>
        <path d="M374.467,288.661a1,1,0,0,1-1-1V218.03a1,1,0,1,1,2,0v69.631A1,1,0,0,1,374.467,288.661Z" fill="#292a2e"></path>
        <path d="M409.283,253.846H339.652a1,1,0,0,1,0-2h69.631a1,1,0,0,1,0,2Z" fill="#292a2e"></path>
      </g>
    </g>
    <g>
      <g>
        <path d="M170.786,297.663,181.948,280.3a3.267,3.267,0,0,1,4.753-.813,3.381,3.381,0,0,1,.65,4.487l-2.393,3.724,12.9-8.255c1.418-.943,3.761-1.193,4.714.468a3.266,3.266,0,0,1-.348,4.051.217.217,0,0,1,.032.036.158.158,0,0,1,.014.036l2.188-1.454a3.269,3.269,0,0,1,4.846,1.514,3.344,3.344,0,0,1-1.331,3.993l-.931.619a.29.29,0,0,1,0,.106,3.266,3.266,0,0,1,3.98,1.435,3.372,3.372,0,0,1-1.157,4.429l-2.312,1.536a.3.3,0,0,1,.242.133.286.286,0,0,1,.043.162,3.269,3.269,0,0,1,3.351,2.119,3.343,3.343,0,0,1-1.361,3.918l-19.506,12.965a16.448,16.448,0,0,1-18.391-.121h0a10.854,10.854,0,0,1-3-14.829Z" fill="#E98862"></path>
        <g opacity="0.2">
          <path d="M189.5,292.194a.3.3,0,0,0,.413.085l12.259-7.866a.3.3,0,1,0-.326-.507l-12.259,7.866a.3.3,0,0,0-.091.416Z" fill="#0c0c0c"></path>
        </g>
        <g opacity="0.2">
          <path d="M192.816,297.7a.3.3,0,0,0,.413.085L206.91,289a.3.3,0,0,0,.091-.417.313.313,0,0,0-.417-.09L192.9,297.274a.3.3,0,0,0-.091.417Z" fill="#0c0c0c"></path>
        </g>
        <g opacity="0.2">
          <path d="M196.378,303.677a.3.3,0,0,0,.412.085l10.914-7a.3.3,0,0,0-.326-.507l-10.914,7a.3.3,0,0,0-.09.417Z" fill="#0c0c0c"></path>
        </g>
      </g>
      <path d="M74.449,269.5,126.1,352.455l-32.447-5.277,75.506-58.341,27.514,35.609-75.506,58.341a22.487,22.487,0,0,1-31.544-4.045q-.2-.262-.4-.529l-.506-.7-57.107-79.3Z" fill="#1FB2A5"></path>
      <g>
        <g>
          <path d="M59.858,753.219s3.718,19.273,21.764,20.347,14.132,15.45,14.132,15.45H26.8V754.563Z" fill="#1FB2A5"></path>
          <path d="M38.588,401.641s.217-5.794.171,7.349c-.171,49.022-1.022,105.017-3.1,137.783-3.341,52.675-11.908,218.746-11.908,218.746l45.314-.381,43.92-365.489Z" fill="#262626"></path>
          <path d="M89.76,459.449s1.878,35.575,2.226,43.927c.806,19.315,1.085,39.313,1.085,61.987l7.143-59.44S94.987,487.3,89.76,459.449Z" fill="#0a0a0a"></path>
          <path d="M140.53,753.219s3.718,19.273,21.763,20.347,14.132,15.45,14.132,15.45H107.466V754.563Z" fill="#1FB2A5"></path>
          <path d="M162.47,405.447s4.014,167.547,3.426,175.736L149.044,764.25l-44.565.823,4.343-190.512s-3.064-52.552-15.761-101.351a378.288,378.288,0,0,1-11.668-76.534h0Z" fill="#262626"></path>
          <path d="M38.1,401.636l-.148.008S38.055,398.786,38.1,401.636Z" fill="#333"></path>
          <path d="M168.849,312.448c-.934,10.979-5.48,79.476-6.379,93H38.638c-.7-12.2-3.84-65.53-6.493-89.381-2.532-22.76-2.875-34.54.767-41.268,5.951-11,17.585-16.968,28.673-18.469,6.771-.916,16.954-1.573,16.954-1.573S79.4,272.2,99.96,273.169c27.987,1.32,26.119-18.413,26.257-18.413,4.534,0,27.424,2.134,33.262,6.626C171.955,270.979,170.833,289.182,168.849,312.448Z" fill="#1FB2A5"></path>
        </g>
        <g>
          <path id="h_3_sk" d="M137.568,255.386c-.13-.017-3.7,13.429-31.588,11.337-19.305-1.446-24.012-14.587-24.455-14.587,2.082-.442,5.462-.9,6.386-1.395a11.422,11.422,0,0,0,6.369-7.888c.872-3.337,1.316-16.183,1.316-22.628L125.3,226.9c-.414,7.27-3.312,24.125,6.846,27.108C133.837,254.5,135.657,254.955,137.568,255.386Z" fill="#E98862"></path>
          <path d="M124.274,241.193c-11.711.924-26.755-4.02-29.612-19.644l-2.578-14.1c-2.858-15.624,3.032-29.791,17.743-32.481h0c14.711-2.691,28.023,7.964,30.88,23.588l1.142,6.242C142.945,210.8,145.168,239.545,124.274,241.193Z" fill="#E98862"></path>
          <path d="M135.132,226.848c-2.1-10.562-3.066-17.608-2.954-25.043,2.961-5.193,2.182-11.154,1.509-13.729a11.412,11.412,0,0,0,6.847,1.755s-4.9-19.651-21.539-24.939c-3.06-1.191-10.874-2.695-21.249-1.272-8.825,1.21-30.577,7.808-33.685,32.3h0v.014c-.1.812-2.191,23.376-6.355,34.2-5.6,14.553-13.456,19.075-13.257,35.866.254,21.405,52.3,23.641,63.912,22.857,23.95-1.616,37.319-9.49,37.492-25.055C146.045,246.36,139.338,247.98,135.132,226.848Z" fill="#0a0a0a"></path>
        </g>
      </g>
      <g>
        <rect x="170.074" y="155.325" width="170.592" height="141.622" rx="4.955" fill="#1FB2A5"></rect>
        <rect x="170.074" y="155.325" width="170.592" height="141.622" rx="4.955" fill="#fff" opacity="0.3"></rect>
        <circle cx="229.571" cy="199.196" r="12.344" fill="#fff" opacity="0.8"></circle>
        <path d="M246.568,256.909l35.784-39.92A12.716,12.716,0,0,1,300.2,215.91l40.469,35.432v45.606H291.749" fill="#fff" opacity="0.5"></path>
        <path d="M291.749,296.948l-77.593-68.763a12.716,12.716,0,0,0-16.674-.168l-27.408,23.325v45.606" fill="#fff" opacity="0.8"></path>
        <path d="M335.71,297.7H175.029a5.711,5.711,0,0,1-5.7-5.7V160.28a5.712,5.712,0,0,1,5.7-5.705H335.71a5.713,5.713,0,0,1,5.706,5.705V291.992A5.712,5.712,0,0,1,335.71,297.7ZM175.029,156.075a4.21,4.21,0,0,0-4.2,4.205V291.992a4.209,4.209,0,0,0,4.2,4.2H335.71a4.21,4.21,0,0,0,4.206-4.2V160.28a4.211,4.211,0,0,0-4.206-4.205Z" fill="#292a2e"></path>
      </g>
      <g>
        <path d="M268.849,297.663,280.011,280.3a3.267,3.267,0,0,1,4.753-.813,3.381,3.381,0,0,1,.651,4.487l-2.394,3.724,12.9-8.255c1.418-.943,3.762-1.193,4.714.468a3.266,3.266,0,0,1-.348,4.051.282.282,0,0,1,.033.036.22.22,0,0,1,.013.036l2.188-1.454a3.269,3.269,0,0,1,4.846,1.514,3.344,3.344,0,0,1-1.331,3.993l-.931.619a.314.314,0,0,1,0,.106,3.265,3.265,0,0,1,3.979,1.435,3.372,3.372,0,0,1-1.157,4.429l-2.312,1.536a.3.3,0,0,1,.242.133.286.286,0,0,1,.043.162,3.269,3.269,0,0,1,3.351,2.119,3.341,3.341,0,0,1-1.361,3.918l-19.506,12.965a16.448,16.448,0,0,1-18.391-.121h0a10.854,10.854,0,0,1-3-14.829Z" fill="#E98862"></path>
        <g opacity="0.2">
          <path d="M287.559,292.194a.3.3,0,0,0,.413.085l12.259-7.866a.3.3,0,1,0-.326-.507l-12.259,7.866a.3.3,0,0,0-.091.416Z" fill="#0c0c0c"></path>
        </g>
        <g opacity="0.2">
          <path d="M290.879,297.7a.3.3,0,0,0,.413.085L304.973,289a.3.3,0,0,0,.091-.417.313.313,0,0,0-.417-.09l-13.681,8.778a.3.3,0,0,0-.091.417Z" fill="#0c0c0c"></path>
        </g>
        <g opacity="0.2">
          <path d="M294.441,303.677a.3.3,0,0,0,.412.085l10.914-7a.3.3,0,0,0-.326-.507l-10.913,7a.3.3,0,0,0-.091.417Z" fill="#0c0c0c"></path>
        </g>
      </g>
      <path d="M163.133,265.553l60.342,85.93-31.756-4.305,75.505-58.341,27.514,35.609-75.506,58.341a22.488,22.488,0,0,1-31.3-3.73l-.46-.575L121.88,296.493Z" fill="#1FB2A5"></path>
    </g>
    <path d="M1,790.016H659.139a1,1,0,0,0,0-2H1a1,1,0,0,0,0,2Z" fill="#262626"></path>
  </g>
</svg>